# xmcd CD database file
#
# Track frame offsets:
#	150
#	24695
#	45069
#	67501
#	77643
#	95540
#	123274
#	135565
#	150349
#	167863
#	190426
#	206116
#	228523
#	242844
#
# Disc length: 3413 seconds
#
# Revision: 0
# Processed by: cddbd v1.5.2PL0 Copyright (c) Steve Scherf et al.
# Submitted via: CDex 1.51
#
DISCID=ac0d530e
DTITLE=Riot And His Rhythm Devils - Tough Times
DYEAR=2008
DGENRE=Blues
TTITLE0=Tough Times (for the blues)
TTITLE1=Drive All Night
TTITLE2=Come Tomorrow
TTITLE3=Turn It Up
TTITLE4=I Don't Care
TTITLE5=Purple Rain
TTITLE6=Gold Diggin' Mama
TTITLE7=Drink Some Mo'
TTITLE8=KWS
TTITLE9=Save My Soul
TTITLE10=Moving' On
TTITLE11=Close To You
TTITLE12=100 Miles An Hour
TTITLE13=Get The Show On The Road
EXTD=YEAR: 2008
EXTT0=
EXTT1=
EXTT2=
EXTT3=
EXTT4=
EXTT5=
EXTT6=
EXTT7=
EXTT8=
EXTT9=
EXTT10=
EXTT11=
EXTT12=
EXTT13=
PLAYORDER=
